<svg xmlns="http://www.w3.org/2000/svg" width="879" height="204" viewBox="0 0 879 204">
  <g id="Grupo_8523" data-name="Grupo 8523" transform="translate(-151 -2657)">
    <text id="Figura_._Compuestos_utilizados_en_el_envasado_activo_Fuente:_Ospina_2008_" data-name="Figura . Compuestos utilizados en el envasado activo
Fuente: Ospina (2008)
" transform="translate(589 2809)" fill="#00223d" font-size="16" font-family="OpenSans, Open Sans"><tspan x="48.992" y="17">Figura . Compuestos utilizados en el envasado activo</tspan><tspan x="278.203" y="41">Fuente: Ospina (2008)</tspan></text>
    <g id="Rectángulo_3367" data-name="Rectángulo 3367" transform="translate(151 2658)" fill="#266165" stroke="#707070" stroke-width="1">
      <rect width="188" height="111" rx="5" stroke="none"/>
      <rect x="0.5" y="0.5" width="187" height="110" rx="4.5" fill="none"/>
    </g>
    <g id="Rectángulo_3368" data-name="Rectángulo 3368" transform="translate(366 2658)" fill="#266165" stroke="#707070" stroke-width="1">
      <rect width="188" height="111" rx="5" stroke="none"/>
      <rect x="0.5" y="0.5" width="187" height="110" rx="4.5" fill="none"/>
    </g>
    <g id="Rectángulo_3369" data-name="Rectángulo 3369" transform="translate(581 2657)" fill="#266165" stroke="#707070" stroke-width="1">
      <rect width="188" height="111" rx="5" stroke="none"/>
      <rect x="0.5" y="0.5" width="187" height="110" rx="4.5" fill="none"/>
    </g>
    <g id="Rectángulo_3370" data-name="Rectángulo 3370" transform="translate(796 2657)" fill="#266165" stroke="#707070" stroke-width="1">
      <rect width="188" height="111" rx="5" stroke="none"/>
      <rect x="0.5" y="0.5" width="187" height="110" rx="4.5" fill="none"/>
    </g>
    <text id="Absorbedores_de_oxígeno." data-name="Absorbedores de oxígeno." transform="translate(164 2692)" fill="#fff" font-size="16" font-family="OpenSans, Open Sans"><tspan x="13.457" y="17">Absorbedores de </tspan><tspan x="45.711" y="41">oxígeno.</tspan></text>
    <text id="Absorbedores_liberadores_de_dióxido_de_carbono." data-name="Absorbedores – liberadores de dióxido de carbono." transform="translate(382 2679)" fill="#fff" font-size="16" font-family="OpenSans, Open Sans"><tspan x="18.848" y="17">Absorbedores – </tspan><tspan x="23.574" y="41">liberadores de </tspan><tspan x="3.117" y="65">dióxido de carbono.</tspan></text>
    <text id="Liberadores_de_etanol." data-name="Liberadores de etanol." transform="translate(594 2691)" fill="#fff" font-size="16" font-family="OpenSans, Open Sans"><tspan x="21.445" y="17">Liberadores de </tspan><tspan x="51.844" y="41">etanol.</tspan></text>
    <text id="Absorbedores_de_etileno." data-name="Absorbedores de etileno." transform="translate(809 2691)" fill="#fff" font-size="16" font-family="OpenSans, Open Sans"><tspan x="13.457" y="17">Absorbedores de </tspan><tspan x="49.781" y="41">etileno.</tspan></text>
  </g>
</svg>
