<svg xmlns="http://www.w3.org/2000/svg" width="960" height="369.5" viewBox="0 0 960 369.5">
  <g id="Grupo_8528" data-name="Grupo 8528" transform="translate(-100 -1677.5)">
    <text id="De_acuerdo_con_el_material_de_fabricación_los_envases_más_utilizados_para_derivados_de_frutas_y_hortalizas_se_clasifican_en:" data-name="De acuerdo con el material de fabricación, los envases más utilizados para derivados de frutas y hortalizas se clasifican en:" transform="translate(120 1745.5)" fill="#00223d" font-size="16" font-family="OpenSans, Open Sans"><tspan x="0" y="17">De acuerdo con el material de fabricación, los envases más utilizados para derivados de frutas y hortalizas se clasifican en:</tspan></text>
    <g id="Grupo_7951" data-name="Grupo 7951" transform="translate(-908.855 1180.646)">
      <g id="Grupo_7950" data-name="Grupo 7950" transform="translate(1102.855 612.567)">
        <path id="Trazado_13994" data-name="Trazado 13994" d="M1140.984,675.391V612.567h-16.866v62.824a29.674,29.674,0,0,0-21.263,28.45V811.253h59.385V703.841A29.667,29.667,0,0,0,1140.984,675.391Z" transform="translate(-1102.855 -612.567)" fill="#6ac7f4" stroke="#161615" stroke-linecap="round" stroke-linejoin="round" stroke-width="4.1"/>
        <rect id="Rectángulo_3373" data-name="Rectángulo 3373" width="16.866" height="24.194" transform="translate(21.263 0)" stroke-width="4.1" stroke="#161615" stroke-linecap="round" stroke-linejoin="round" fill="#90b62d"/>
      </g>
      <rect id="Rectángulo_3374" data-name="Rectángulo 3374" width="39.103" height="67.939" transform="translate(1112.999 715.695)" stroke-width="4.1" stroke="#161615" stroke-linecap="round" stroke-linejoin="round" fill="#fff"/>
    </g>
    <g id="Grupo_7952" data-name="Grupo 7952" transform="translate(-868.896 772.92)">
      <path id="Trazado_13995" data-name="Trazado 13995" d="M1561.428,1087.374h-29.381c0,11.162-8.673,19.514-14.077,26.641a15.561,15.561,0,0,0-3.391,9.677c0,23.4-.068,91.951-.068,91.951a15.019,15.019,0,0,0,15.02,15.022h34.345a15.023,15.023,0,0,0,15.02-15.022s-.029-74.785-.029-91.96c0-4.666-1.661-7.086-3.479-9.643C1570.834,1107.609,1561.428,1098.978,1561.428,1087.374Z" transform="translate(0 -11.203)" fill="#6ac7f4" stroke="#161615" stroke-linecap="round" stroke-linejoin="round" stroke-width="4.1"/>
      <path id="Trazado_13996" data-name="Trazado 13996" d="M1576.539,1076.571V1070.9a8.05,8.05,0,0,0-8.043-8.046h-18.552a8.047,8.047,0,0,0-8.042,8.046v5.667Z" transform="translate(-12.516)" fill="#00709e" stroke="#161615" stroke-linecap="round" stroke-linejoin="round" stroke-width="4.1"/>
      <path id="Trazado_13997" data-name="Trazado 13997" d="M1514.548,1229.457h64.346c-.01-13.744-.01-29.443-.015-41.778h-64.3C1514.572,1200.44,1514.562,1215.95,1514.548,1229.457Z" transform="translate(-0.017 -57.038)" fill="#fff" stroke="#161615" stroke-linecap="round" stroke-linejoin="round" stroke-width="4.1"/>
    </g>
    <g id="Grupo_7953" data-name="Grupo 7953" transform="translate(-92.423 337.075)">
      <path id="Trazado_13998" data-name="Trazado 13998" d="M717.053,1652.213a14.319,14.319,0,0,1-14.317,14.324h-54a14.319,14.319,0,0,1-14.316-14.324v-82.637a14.319,14.319,0,0,1,14.316-14.319h54a14.319,14.319,0,0,1,14.317,14.319Z" transform="translate(0 -13.925)" fill="#6ac7f4" stroke="#161615" stroke-linecap="round" stroke-linejoin="round" stroke-width="4.1"/>
      <rect id="Rectángulo_3375" data-name="Rectángulo 3375" width="54.699" height="13.088" transform="translate(648.391 1528.244)" stroke-width="4.1" stroke="#161615" stroke-linecap="round" stroke-linejoin="round" fill="#dd1a18"/>
      <rect id="Rectángulo_3376" data-name="Rectángulo 3376" width="82.63" height="41.143" transform="translate(634.423 1573.128)" stroke-width="4.1" stroke="#161615" stroke-linecap="round" stroke-linejoin="round" fill="#dd1a18"/>
      <path id="Trazado_13999" data-name="Trazado 13999" d="M717.767,1633.661a30.155,30.155,0,1,1-30.151-30.16A30.151,30.151,0,0,1,717.767,1633.661Z" transform="translate(-11.874 -38.794)" fill="#fff" stroke="#161615" stroke-linecap="round" stroke-linejoin="round" stroke-width="4.1"/>
    </g>
    <text id="_-_Envases_metálicos" data-name="- Envases metálicos" transform="translate(288 1838)" fill="#00223d" font-size="16" font-family="OpenSans, Open Sans"><tspan x="0" y="17">- Envases metálicos</tspan></text>
    <text id="_-_Envases_de_vidrio" data-name="- Envases de vidrio" transform="translate(288 1888)" fill="#00223d" font-size="16" font-family="OpenSans, Open Sans"><tspan x="0" y="17">- Envases de vidrio</tspan></text>
    <text id="_-_Envases_de_papel_y_cartón" data-name="- Envases de papel y cartón" transform="translate(288 1938)" fill="#00223d" font-size="16" font-family="OpenSans, Open Sans"><tspan x="0" y="17">- Envases de papel y cartón</tspan></text>
    <text id="_-_Envases_de_plástico" data-name="- Envases de plástico" transform="translate(758 1836)" fill="#00223d" font-size="16" font-family="OpenSans, Open Sans"><tspan x="0" y="17">- Envases de plástico</tspan></text>
    <text id="_-_Envases_combinados" data-name="- Envases combinados" transform="translate(758 1886)" fill="#00223d" font-size="16" font-family="OpenSans, Open Sans"><tspan x="0" y="17">- Envases combinados</tspan></text>
    <rect id="Rectángulo_3270" data-name="Rectángulo 3270" width="960" height="24" transform="translate(100 1690)" fill="#fde082"/>
    <rect id="Rectángulo_3271" data-name="Rectángulo 3271" width="960" height="16" transform="translate(100 2031)" fill="#fde082"/>
    <g id="Grupo_6224" data-name="Grupo 6224" transform="translate(918.105 3228.605) rotate(180)">
      <rect id="rectangle" width="85" height="85" stroke-width="1" fill="none" stroke="rgba(0,0,0,0)" transform="translate(295.605 1465.605)"/>
      <path id="path" d="M7,26.717,24.717,9,42.433,26.717Z" transform="translate(313.803 1488.89)" fill="#fde082" stroke="rgba(0,0,0,0)" stroke-width="1" fill-rule="evenodd"/>
    </g>
  </g>
</svg>
