<svg xmlns="http://www.w3.org/2000/svg" width="783" height="300" viewBox="0 0 783 300">
  <g id="Grupo_8523" data-name="Grupo 8523" transform="translate(-180 -1982)">
    <text id="Reducir_la_intensidad_de_la_respiración." data-name="Reducir la intensidad de la respiración." transform="translate(254 2000)" fill="#00223d" font-size="16" font-family="OpenSans, Open Sans"><tspan x="0" y="17">Reducir la intensidad de la respiración.</tspan></text>
    <text id="Reducir_la_degradación_de_la_clorofila_y_el_pardeamiento_enzimático." data-name="Reducir la degradación de la clorofila y el pardeamiento enzimático." transform="translate(664 2001.5)" fill="#00223d" font-size="16" font-family="OpenSans, Open Sans"><tspan x="0" y="17">Reducir la degradación de la clorofila y </tspan><tspan x="0" y="41">el pardeamiento enzimático.</tspan></text>
    <text id="Retrasar_la_maduración_y_sus_cambios_asociados." data-name="Retrasar la maduración y sus cambios asociados." transform="translate(254 2065)" fill="#00223d" font-size="16" font-family="OpenSans, Open Sans"><tspan x="0" y="17">Retrasar la maduración y sus cambios </tspan><tspan x="0" y="41">asociados.</tspan></text>
    <text id="Atenuar_las_alteraciones_fisiológicas_y_los_daños_por_frío." data-name="Atenuar las alteraciones fisiológicas y los daños por frío." transform="translate(664 2066.5)" fill="#00223d" font-size="16" font-family="OpenSans, Open Sans"><tspan x="0" y="17">Atenuar las alteraciones fisiológicas y </tspan><tspan x="0" y="41">los daños por frío.</tspan></text>
    <text id="Disminuir_la_producción_y_sensibilidad_al_etileno." data-name="Disminuir la producción y sensibilidad al etileno." transform="translate(254 2146)" fill="#00223d" font-size="16" font-family="OpenSans, Open Sans"><tspan x="0" y="17">Disminuir la producción y sensibilidad </tspan><tspan x="0" y="41">al etileno.</tspan></text>
    <text id="Mantener_el_color_y_proteger_las_vitaminas_de_los_productos_frescos." data-name="Mantener el color y proteger las vitaminas de los productos frescos." transform="translate(664 2147.5)" fill="#00223d" font-size="16" font-family="OpenSans, Open Sans"><tspan x="0" y="17">Mantener el color y proteger las </tspan><tspan x="0" y="41">vitaminas de los productos frescos.</tspan></text>
    <text id="Retrasar_la_pérdida_de_textura." data-name="Retrasar la pérdida de textura." transform="translate(254 2231)" fill="#00223d" font-size="16" font-family="OpenSans, Open Sans"><tspan x="0" y="17">Retrasar la pérdida de textura.</tspan></text>
    <g id="Grupo_4338" data-name="Grupo 4338" transform="translate(180 1982)">
      <circle id="Elipse_497" data-name="Elipse 497" cx="29" cy="29" r="29" fill="#266165"/>
      <path id="Trazado_1178" data-name="Trazado 1178" d="M25.447,0A25.447,25.447,0,1,1,0,25.447,25.447,25.447,0,0,1,25.447,0Z" transform="translate(3.299 3.548)" fill="#266165"/>
    </g>
    <g id="Grupo_7932" data-name="Grupo 7932" transform="translate(590 1983.5)">
      <circle id="Elipse_497-2" data-name="Elipse 497" cx="29" cy="29" r="29" fill="#266165"/>
      <path id="Trazado_1178-2" data-name="Trazado 1178" d="M25.447,0A25.447,25.447,0,1,1,0,25.447,25.447,25.447,0,0,1,25.447,0Z" transform="translate(3.299 3.548)" fill="#266165"/>
    </g>
    <g id="Grupo_7929" data-name="Grupo 7929" transform="translate(180 2058)">
      <circle id="Elipse_497-3" data-name="Elipse 497" cx="29" cy="29" r="29" fill="#266165"/>
      <path id="Trazado_1178-3" data-name="Trazado 1178" d="M25.447,0A25.447,25.447,0,1,1,0,25.447,25.447,25.447,0,0,1,25.447,0Z" transform="translate(3.299 3.548)" fill="#266165"/>
    </g>
    <g id="Grupo_7933" data-name="Grupo 7933" transform="translate(590 2059.5)">
      <circle id="Elipse_497-4" data-name="Elipse 497" cx="29" cy="29" r="29" fill="#266165"/>
      <path id="Trazado_1178-4" data-name="Trazado 1178" d="M25.447,0A25.447,25.447,0,1,1,0,25.447,25.447,25.447,0,0,1,25.447,0Z" transform="translate(3.299 3.548)" fill="#266165"/>
    </g>
    <g id="Grupo_7930" data-name="Grupo 7930" transform="translate(180 2132)">
      <circle id="Elipse_497-5" data-name="Elipse 497" cx="29" cy="29" r="29" fill="#266165"/>
      <path id="Trazado_1178-5" data-name="Trazado 1178" d="M25.447,0A25.447,25.447,0,1,1,0,25.447,25.447,25.447,0,0,1,25.447,0Z" transform="translate(3.299 3.548)" fill="#266165"/>
    </g>
    <g id="Grupo_7934" data-name="Grupo 7934" transform="translate(590 2133.5)">
      <circle id="Elipse_497-6" data-name="Elipse 497" cx="29" cy="29" r="29" fill="#266165"/>
      <path id="Trazado_1178-6" data-name="Trazado 1178" d="M25.447,0A25.447,25.447,0,1,1,0,25.447,25.447,25.447,0,0,1,25.447,0Z" transform="translate(3.299 3.548)" fill="#266165"/>
    </g>
    <g id="Grupo_7931" data-name="Grupo 7931" transform="translate(180 2206)">
      <circle id="Elipse_497-7" data-name="Elipse 497" cx="29" cy="29" r="29" fill="#266165"/>
      <path id="Trazado_1178-7" data-name="Trazado 1178" d="M25.447,0A25.447,25.447,0,1,1,0,25.447,25.447,25.447,0,0,1,25.447,0Z" transform="translate(3.299 3.548)" fill="#266165"/>
    </g>
    <text id="_1" data-name="1" transform="translate(201 1990)" fill="#fff" font-size="36" font-family="Montserrat-Bold, Montserrat" font-weight="700"><tspan x="0" y="35">1</tspan></text>
    <text id="_5" data-name="5" transform="translate(608 1991.5)" fill="#fff" font-size="36" font-family="Montserrat-Bold, Montserrat" font-weight="700"><tspan x="0" y="35">5</tspan></text>
    <text id="_2" data-name="2" transform="translate(199 2066)" fill="#fff" font-size="36" font-family="Montserrat-Bold, Montserrat" font-weight="700"><tspan x="0" y="35">2</tspan></text>
    <text id="_6" data-name="6" transform="translate(606 2066.5)" fill="#fff" font-size="36" font-family="Montserrat-Bold, Montserrat" font-weight="700"><tspan x="0" y="35">6</tspan></text>
    <text id="_3" data-name="3" transform="translate(199 2140)" fill="#fff" font-size="36" font-family="Montserrat-Bold, Montserrat" font-weight="700"><tspan x="0" y="35">3</tspan></text>
    <text id="_7" data-name="7" transform="translate(608 2142.5)" fill="#fff" font-size="36" font-family="Montserrat-Bold, Montserrat" font-weight="700"><tspan x="0" y="35">7</tspan></text>
    <text id="_4" data-name="4" transform="translate(195 2214)" fill="#fff" font-size="36" font-family="Montserrat-Bold, Montserrat" font-weight="700"><tspan x="0" y="35">4</tspan></text>
  </g>
</svg>
