<svg xmlns="http://www.w3.org/2000/svg" width="939" height="328" viewBox="0 0 939 328">
  <g id="Grupo_8525" data-name="Grupo 8525" transform="translate(-110 -3337)">
    <ellipse id="Elipse_641" data-name="Elipse 641" cx="24.5" cy="25.5" rx="24.5" ry="25.5" transform="translate(110 3337)" fill="#d3a518"/>
    <ellipse id="Elipse_643" data-name="Elipse 643" cx="24.5" cy="25.5" rx="24.5" ry="25.5" transform="translate(110 3483)" fill="#d3a518"/>
    <ellipse id="Elipse_671" data-name="Elipse 671" cx="24.5" cy="25.5" rx="24.5" ry="25.5" transform="translate(111 3555)" fill="#d3a518"/>
    <ellipse id="Elipse_672" data-name="Elipse 672" cx="24.5" cy="25.5" rx="24.5" ry="25.5" transform="translate(581 3337)" fill="#d3a518"/>
    <ellipse id="Elipse_673" data-name="Elipse 673" cx="24.5" cy="25.5" rx="24.5" ry="25.5" transform="translate(580 3412)" fill="#d3a518"/>
    <ellipse id="Elipse_674" data-name="Elipse 674" cx="24.5" cy="25.5" rx="24.5" ry="25.5" transform="translate(580 3483)" fill="#d3a518"/>
    <ellipse id="Elipse_675" data-name="Elipse 675" cx="24.5" cy="25.5" rx="24.5" ry="25.5" transform="translate(580 3559)" fill="#d3a518"/>
    <text id="No_alterar_las_características_del_alimento._" data-name="No alterar las características del alimento.

" transform="translate(184 3352)" fill="#00223d" font-size="18" font-family="OpenSans, Open Sans"><tspan x="0" y="19">No alterar las características del alimento.</tspan></text>
    <text id="Resistir_los_procesos_mecánicos_de_llenado_esterilización_y_distribución." data-name="Resistir los procesos mecánicos de llenado, esterilización y distribución." transform="translate(184 3410)" fill="#00223d" font-size="18" font-family="OpenSans, Open Sans"><tspan x="0" y="19">Resistir los procesos mecánicos de llenado, </tspan><tspan x="0" y="43">esterilización y distribución.</tspan></text>
    <text id="Ser_estético_y_funcional." data-name="Ser estético y funcional." transform="translate(184 3491)" fill="#00223d" font-size="18" font-family="OpenSans, Open Sans"><tspan x="0" y="19">Ser estético y funcional.</tspan></text>
    <text id="Tener_cierta_capacidad_de_barrera_para_evitar_el_paso_de_gases_desde_el_exterior_hacia_el_interior_del_envase_y_viceversa." data-name="Tener cierta capacidad de barrera para evitar el paso de gases desde el exterior hacia el interior del envase y viceversa." transform="translate(185 3561)" fill="#00223d" font-size="18" font-family="OpenSans, Open Sans"><tspan x="0" y="19">Tener cierta capacidad de barrera para </tspan><tspan x="0" y="43">evitar el paso de gases desde el exterior </tspan><tspan x="0" y="67">hacia el interior del envase y viceversa.</tspan></text>
    <text id="Debe_garantizar_un_sellado_hermético." data-name="Debe garantizar un sellado hermético." transform="translate(654 3349)" fill="#00223d" font-size="18" font-family="OpenSans, Open Sans"><tspan x="0" y="19">Debe garantizar un sellado hermético.</tspan></text>
    <text id="Presentar_buena_resistencia_térmica." data-name="Presentar buena resistencia térmica." transform="translate(654 3424)" fill="#00223d" font-size="18" font-family="OpenSans, Open Sans"><tspan x="0" y="19">Presentar buena resistencia térmica.</tspan></text>
    <text id="Tener_un_costo_moderado." data-name="Tener un costo moderado." transform="translate(654 3495)" fill="#00223d" font-size="18" font-family="OpenSans, Open Sans"><tspan x="0" y="19">Tener un costo moderado.</tspan></text>
    <text id="Ser_reciclable_y_utilizable." data-name="Ser reciclable y utilizable." transform="translate(654 3566)" fill="#00223d" font-size="18" font-family="OpenSans, Open Sans"><tspan x="0" y="19">Ser reciclable y utilizable.</tspan></text>
    <g id="Grupo_962" data-name="Grupo 962" transform="translate(111.716 3338.716)">
      <rect id="rectangle" width="45" height="45" transform="translate(0.284 0.284)" fill="none"/>
      <path id="path" d="M14.093,25.84l-8.02-8.02L3.4,20.494,14.093,31.187,37.007,8.273,34.334,5.6Z" transform="translate(3.092 5.093)" fill="#fff" fill-rule="evenodd"/>
    </g>
    <g id="Grupo_7936" data-name="Grupo 7936" transform="translate(-94 -5)">
      <ellipse id="Elipse_642" data-name="Elipse 642" cx="24.5" cy="25" rx="24.5" ry="25" transform="translate(206 3418)" fill="#d3a518"/>
      <g id="Grupo_3915" data-name="Grupo 3915" transform="translate(205.716 3420.231)">
        <rect id="rectangle-2" data-name="rectangle" width="45" height="46" transform="translate(0.284 -0.231)" fill="none"/>
        <path id="path-2" data-name="path" d="M14.093,25.84l-8.02-8.02L3.4,20.494,14.093,31.187,37.007,8.273,34.334,5.6Z" transform="translate(3.092 5.146)" fill="#fff" fill-rule="evenodd"/>
      </g>
    </g>
    <g id="Grupo_3916" data-name="Grupo 3916" transform="translate(109.716 3486.746)">
      <rect id="rectangle-3" data-name="rectangle" width="45" height="45" transform="translate(0.284 0.254)" fill="none"/>
      <path id="path-3" data-name="path" d="M14.093,25.84l-8.02-8.02L3.4,20.494,14.093,31.187,37.007,8.273,34.334,5.6Z" transform="translate(3.092 5.198)" fill="#fff" fill-rule="evenodd"/>
    </g>
    <g id="Grupo_7937" data-name="Grupo 7937" transform="translate(110.716 3558.746)">
      <rect id="rectangle-4" data-name="rectangle" width="45" height="45" transform="translate(0.284 0.254)" fill="none"/>
      <path id="path-4" data-name="path" d="M14.093,25.84l-8.02-8.02L3.4,20.494,14.093,31.187,37.007,8.273,34.334,5.6Z" transform="translate(3.092 5.198)" fill="#fff" fill-rule="evenodd"/>
    </g>
    <g id="Grupo_7938" data-name="Grupo 7938" transform="translate(581 3341)">
      <rect id="rectangle-5" data-name="rectangle" width="45" height="45" fill="none"/>
      <path id="path-5" data-name="path" d="M14.093,25.84l-8.02-8.02L3.4,20.494,14.093,31.187,37.007,8.273,34.334,5.6Z" transform="translate(2.808 4.943)" fill="#fff" fill-rule="evenodd"/>
    </g>
    <g id="Grupo_7939" data-name="Grupo 7939" transform="translate(580 3416)">
      <rect id="rectangle-6" data-name="rectangle" width="45" height="45" fill="none"/>
      <path id="path-6" data-name="path" d="M14.093,25.84l-8.02-8.02L3.4,20.494,14.093,31.187,37.007,8.273,34.334,5.6Z" transform="translate(2.808 4.943)" fill="#fff" fill-rule="evenodd"/>
    </g>
    <g id="Grupo_7940" data-name="Grupo 7940" transform="translate(580 3487)">
      <rect id="rectangle-7" data-name="rectangle" width="45" height="45" fill="none"/>
      <path id="path-7" data-name="path" d="M14.093,25.84l-8.02-8.02L3.4,20.494,14.093,31.187,37.007,8.273,34.334,5.6Z" transform="translate(2.808 4.943)" fill="#fff" fill-rule="evenodd"/>
    </g>
    <g id="Grupo_7941" data-name="Grupo 7941" transform="translate(580 3563)">
      <rect id="rectangle-8" data-name="rectangle" width="45" height="45" fill="none"/>
      <path id="path-8" data-name="path" d="M14.093,25.84l-8.02-8.02L3.4,20.494,14.093,31.187,37.007,8.273,34.334,5.6Z" transform="translate(2.808 4.943)" fill="#fff" fill-rule="evenodd"/>
    </g>
  </g>
</svg>
