<svg xmlns="http://www.w3.org/2000/svg" width="469" height="293" viewBox="0 0 469 293">
  <g id="Grupo_8524" data-name="Grupo 8524" transform="translate(-371 -715)">
    <ellipse id="Elipse_679" data-name="Elipse 679" cx="24.5" cy="25.5" rx="24.5" ry="25.5" transform="translate(372 715)" fill="#d3a518"/>
    <ellipse id="Elipse_678" data-name="Elipse 678" cx="24.5" cy="25.5" rx="24.5" ry="25.5" transform="translate(371 790)" fill="#d3a518"/>
    <ellipse id="Elipse_677" data-name="Elipse 677" cx="24.5" cy="25.5" rx="24.5" ry="25.5" transform="translate(371 861)" fill="#d3a518"/>
    <ellipse id="Elipse_676" data-name="Elipse 676" cx="24.5" cy="25.5" rx="24.5" ry="25.5" transform="translate(371 937)" fill="#d3a518"/>
    <text id="Poseen_alta_resistencia_mecánica." data-name="Poseen alta resistencia mecánica." transform="translate(445 727)" fill="#00223d" font-size="18" font-family="OpenSans, Open Sans"><tspan x="0" y="19">Poseen alta resistencia mecánica.</tspan></text>
    <text id="Se_adaptan_a_las_líneas_de_envasado_y_cerrado." data-name="Se adaptan a las líneas de envasado y cerrado." transform="translate(445 802)" fill="#00223d" font-size="18" font-family="OpenSans, Open Sans"><tspan x="0" y="19">Se adaptan a las líneas de envasado y cerrado.</tspan></text>
    <text id="Ofrecen_alta_protección_física_contra_golpes_aplastamiento_y_amagulladuras." data-name="Ofrecen alta protección física contra golpes, aplastamiento y amagulladuras." transform="translate(445 873)" fill="#00223d" font-size="18" font-family="OpenSans, Open Sans"><tspan x="0" y="19">Ofrecen alta protección física contra golpes, </tspan><tspan x="0" y="43">aplastamiento y amagulladuras.</tspan></text>
    <text id="Se_utilizan_previamente_formados." data-name="Se utilizan previamente formados." transform="translate(445 944)" fill="#00223d" font-size="18" font-family="OpenSans, Open Sans"><tspan x="0" y="19">Se utilizan previamente </tspan><tspan x="0" y="43">formados.</tspan></text>
    <g id="Grupo_7949" data-name="Grupo 7949" transform="translate(372 719)">
      <rect id="rectangle" width="45" height="45" fill="none"/>
      <path id="path" d="M14.093,25.84l-8.02-8.02L3.4,20.494,14.093,31.187,37.007,8.273,34.334,5.6Z" transform="translate(2.808 4.943)" fill="#fff" fill-rule="evenodd"/>
    </g>
    <g id="Grupo_7948" data-name="Grupo 7948" transform="translate(371 794)">
      <rect id="rectangle-2" data-name="rectangle" width="45" height="45" fill="none"/>
      <path id="path-2" data-name="path" d="M14.093,25.84l-8.02-8.02L3.4,20.494,14.093,31.187,37.007,8.273,34.334,5.6Z" transform="translate(2.808 4.943)" fill="#fff" fill-rule="evenodd"/>
    </g>
    <g id="Grupo_7947" data-name="Grupo 7947" transform="translate(371 865)">
      <rect id="rectangle-3" data-name="rectangle" width="45" height="45" fill="none"/>
      <path id="path-3" data-name="path" d="M14.093,25.84l-8.02-8.02L3.4,20.494,14.093,31.187,37.007,8.273,34.334,5.6Z" transform="translate(2.808 4.943)" fill="#fff" fill-rule="evenodd"/>
    </g>
    <g id="Grupo_7946" data-name="Grupo 7946" transform="translate(371 941)">
      <rect id="rectangle-4" data-name="rectangle" width="45" height="45" fill="none"/>
      <path id="path-4" data-name="path" d="M14.093,25.84l-8.02-8.02L3.4,20.494,14.093,31.187,37.007,8.273,34.334,5.6Z" transform="translate(2.808 4.943)" fill="#fff" fill-rule="evenodd"/>
    </g>
  </g>
</svg>
