<svg xmlns="http://www.w3.org/2000/svg" width="772" height="148.19" viewBox="0 0 772 148.19">
  <g id="Grupo_8524" data-name="Grupo 8524" transform="translate(-200 -3008.81)">
    <text id="Proteger_el_producto_de_la_contaminación_física_química_o_microbiológica." data-name="Proteger el producto de la contaminación física, química o microbiológica." transform="translate(258 3011)" fill="#00223d" font-size="16" font-family="OpenSans, Open Sans"><tspan x="0" y="17">Proteger el producto de la contaminación </tspan><tspan x="0" y="41">física, química o microbiológica.</tspan></text>
    <text id="Proteger_el_producto_de_factores_ambientales_como_el_oxígeno_la_luz_temperatura_etc." data-name="Proteger el producto de factores ambientales como el oxígeno, la luz, temperatura, etc." transform="translate(258 3078)" fill="#00223d" font-size="16" font-family="OpenSans, Open Sans"><tspan x="0" y="17">Proteger el producto de factores </tspan><tspan x="0" y="41">ambientales como el oxígeno, la luz, </tspan><tspan x="0" y="65">temperatura, etc.</tspan></text>
    <text id="Evitar_que_el_producto_absorba_o_pierda_humedad" data-name="Evitar que el producto absorba o pierda humedad" transform="translate(654 3009)" fill="#00223d" font-size="16" font-family="OpenSans, Open Sans"><tspan x="0" y="17">Evitar que el producto absorba o pierda </tspan><tspan x="0" y="41">humedad</tspan></text>
    <text id="Facilitar_las_operaciones_de_manejo." data-name="Facilitar las operaciones de manejo." transform="translate(654 3076)" fill="#00223d" font-size="16" font-family="OpenSans, Open Sans"><tspan x="0" y="17">Facilitar las operaciones de manejo.</tspan></text>
    <g id="select" transform="translate(242.906 3055.723) rotate(180)">
      <path id="Trazado_612" data-name="Trazado 612" d="M27.5,2.7H1.352a1.352,1.352,0,0,1,0-2.7H27.5a1.352,1.352,0,0,1,0,2.7Zm0,0" transform="translate(14.052 19.168)" fill="#ff6712"/>
      <path id="Trazado_613" data-name="Trazado 613" d="M8.565,17.133a1.342,1.342,0,0,1-.956-.4L.4,9.523a1.353,1.353,0,0,1,0-1.913L7.609.4A1.353,1.353,0,1,1,9.523,2.309L3.265,8.567l6.258,6.258a1.351,1.351,0,0,1-.958,2.308Zm0,0" transform="translate(13.195 11.953)" fill="#ff6712"/>
      <path id="Trazado_614" data-name="Trazado 614" d="M20.575,41.04a20.52,20.52,0,1,1,19.15-28.027,1.4,1.4,0,0,1-2.611,1.024,17.721,17.721,0,1,0,0,12.967,1.4,1.4,0,0,1,2.611,1.024A20.469,20.469,0,0,1,20.575,41.04Zm0,0" transform="translate(0 0)"/>
    </g>
    <g id="select-2" data-name="select" transform="translate(242.906 3120.394) rotate(180)">
      <path id="Trazado_612-2" data-name="Trazado 612" d="M27.5,2.7H1.352a1.352,1.352,0,0,1,0-2.7H27.5a1.352,1.352,0,0,1,0,2.7Zm0,0" transform="translate(14.052 19.168)" fill="#ff6712"/>
      <path id="Trazado_613-2" data-name="Trazado 613" d="M8.565,17.133a1.342,1.342,0,0,1-.956-.4L.4,9.523a1.353,1.353,0,0,1,0-1.913L7.609.4A1.353,1.353,0,1,1,9.523,2.309L3.265,8.567l6.258,6.258a1.351,1.351,0,0,1-.958,2.308Zm0,0" transform="translate(13.195 11.953)" fill="#ff6712"/>
      <path id="Trazado_614-2" data-name="Trazado 614" d="M20.575,41.04a20.52,20.52,0,1,1,19.15-28.027,1.4,1.4,0,0,1-2.611,1.024,17.721,17.721,0,1,0,0,12.967,1.4,1.4,0,0,1,2.611,1.024A20.469,20.469,0,0,1,20.575,41.04Zm0,0" transform="translate(0 0)"/>
    </g>
    <g id="select-3" data-name="select" transform="translate(634.905 3049.85) rotate(180)">
      <path id="Trazado_612-3" data-name="Trazado 612" d="M27.5,2.7H1.352a1.352,1.352,0,0,1,0-2.7H27.5a1.352,1.352,0,0,1,0,2.7Zm0,0" transform="translate(14.052 19.168)" fill="#ff6712"/>
      <path id="Trazado_613-3" data-name="Trazado 613" d="M8.565,17.133a1.342,1.342,0,0,1-.956-.4L.4,9.523a1.353,1.353,0,0,1,0-1.913L7.609.4A1.353,1.353,0,1,1,9.523,2.309L3.265,8.567l6.258,6.258a1.351,1.351,0,0,1-.958,2.308Zm0,0" transform="translate(13.195 11.953)" fill="#ff6712"/>
      <path id="Trazado_614-3" data-name="Trazado 614" d="M20.575,41.04a20.52,20.52,0,1,1,19.15-28.027,1.4,1.4,0,0,1-2.611,1.024,17.721,17.721,0,1,0,0,12.967,1.4,1.4,0,0,1,2.611,1.024A20.469,20.469,0,0,1,20.575,41.04Zm0,0" transform="translate(0 0)"/>
    </g>
    <g id="select-4" data-name="select" transform="translate(634.905 3120.595) rotate(180)">
      <path id="Trazado_612-4" data-name="Trazado 612" d="M27.5,2.7H1.352a1.352,1.352,0,0,1,0-2.7H27.5a1.352,1.352,0,0,1,0,2.7Zm0,0" transform="translate(14.052 19.168)" fill="#ff6712"/>
      <path id="Trazado_613-4" data-name="Trazado 613" d="M8.565,17.133a1.342,1.342,0,0,1-.956-.4L.4,9.523a1.353,1.353,0,0,1,0-1.913L7.609.4A1.353,1.353,0,1,1,9.523,2.309L3.265,8.567l6.258,6.258a1.351,1.351,0,0,1-.958,2.308Zm0,0" transform="translate(13.195 11.953)" fill="#ff6712"/>
      <path id="Trazado_614-4" data-name="Trazado 614" d="M20.575,41.04a20.52,20.52,0,1,1,19.15-28.027,1.4,1.4,0,0,1-2.611,1.024,17.721,17.721,0,1,0,0,12.967,1.4,1.4,0,0,1,2.611,1.024A20.469,20.469,0,0,1,20.575,41.04Zm0,0" transform="translate(0 0)"/>
    </g>
  </g>
</svg>
