<svg xmlns="http://www.w3.org/2000/svg" width="882.386" height="537" viewBox="0 0 882.386 537">
  <g id="Grupo_8524" data-name="Grupo 8524" transform="translate(-119 -3716.5)">
    <text id="Envase_rígido:_tiene_una_forma_definida_inmodificable._Su_rigidez_permite_un_estibado_fácil_sobre_sí_mismo_sin_que_sufra_daños._Ejemplo:_latas_metálicas_de_atún_botellas_de_vidrio." data-name="Envase rígido: tiene una forma definida inmodificable. Su rigidez permite un estibado fácil sobre sí mismo sin que sufra daños.
Ejemplo: latas metálicas de atún, botellas de vidrio." transform="translate(287.386 3757.34)" fill="#00223d" font-size="16" font-family="OpenSans, Open Sans"><tspan x="0" y="17">Envase rígido: tiene una forma definida inmodificable. Su rigidez permite un estibado fácil </tspan><tspan x="0" y="41">sobre sí mismo sin que sufra daños.</tspan><tspan x="0" y="65">Ejemplo: latas metálicas de atún, botellas de vidrio.</tspan></text>
    <text id="Envase_semirígido:_presentan_una_resistencia_inferior_a_la_compresión_respecto_a_la_del_envase_rígido._Ejemplo:_envase_plástico_del_agua_embotellada_envase_de_aceite_de_cocina_etc." data-name="Envase semirígido: presentan una resistencia inferior a la compresión respecto a la del envase rígido.
Ejemplo: envase plástico del agua embotellada, envase de aceite de cocina, etc." transform="translate(287.386 3948.34)" fill="#00223d" font-size="16" font-family="OpenSans, Open Sans"><tspan x="0" y="17">Envase semirígido: presentan una resistencia inferior a la compresión respecto a la del envase </tspan><tspan x="0" y="41">rígido.</tspan><tspan x="0" y="65">Ejemplo: envase plástico del agua embotellada, envase de aceite de cocina, etc.</tspan></text>
    <text id="Envase_flexible_fabricado_con_base_en_películas_plásticas_papel_aluminio_hojas_de_papel_o_cualquier_material_flexible._No_se_puede_estibar_pero_es_muy_práctico_para_el_manejo_de_los_productos._Ejemplo:_envase_de_papas_fritas_mayonesa_salsa_de_tomate_e" data-name="Envase flexible fabricado con base en películas plásticas, papel aluminio, hojas de papel o cualquier material flexible.
No se puede estibar pero es muy práctico para el manejo de los productos.
Ejemplo: envase de papas fritas, mayonesa, salsa de tomate, e" transform="translate(287.386 4129.34)" fill="#00223d" font-size="16" font-family="OpenSans, Open Sans"><tspan x="0" y="17">Envase flexible fabricado con base en películas plásticas, papel aluminio, hojas de papel o </tspan><tspan x="0" y="41">cualquier material flexible.</tspan><tspan x="0" y="65">No se puede estibar pero es muy práctico para el manejo de los productos.</tspan><tspan x="0" y="89">Ejemplo: envase de papas fritas, mayonesa, salsa de tomate, etc.</tspan></text>
    <g id="Grupo_8520" data-name="Grupo 8520" transform="translate(119 3718.195)">
      <ellipse id="Elipse_497" data-name="Elipse 497" cx="67.5" cy="67" rx="67.5" ry="67" transform="translate(0 -0.195)" fill="#80cbc4"/>
      <path id="Trazado_1178" data-name="Trazado 1178" d="M59.984,0A59.984,59.984,0,1,1,0,59.984,59.984,59.984,0,0,1,59.984,0Z" transform="translate(8.182 6.791)" fill="#fff"/>
      <g id="Grupo_8487" data-name="Grupo 8487" transform="translate(-314.481 -143.267)">
        <path id="Trazado_14430" data-name="Trazado 14430" d="M401.391,205.039l-9.271-19.7a15.1,15.1,0,0,1-1.437-6.43V168.841H373.9v10.076a15.092,15.092,0,0,1-1.439,6.431l-9.268,19.69a28.527,28.527,0,0,0-2.716,12.149v35.55a6.711,6.711,0,0,0,6.712,6.712h30.2a6.712,6.712,0,0,0,6.712-6.712V217.185A28.532,28.532,0,0,0,401.391,205.039Z" transform="translate(0 -0.35)" fill="#c8ebfa"/>
        <path id="Trazado_14431" data-name="Trazado 14431" d="M391.209,168.491H374.43a3.355,3.355,0,0,1-3.356-3.356h0a3.355,3.355,0,0,1,3.356-3.356h16.779a3.356,3.356,0,0,1,3.356,3.356h0A3.356,3.356,0,0,1,391.209,168.491Z" transform="translate(-0.526 0)" fill="#a8d8f2"/>
        <path id="Trazado_14432" data-name="Trazado 14432" d="M381.141,165.135a3.356,3.356,0,0,1,3.356-3.356H374.43a3.356,3.356,0,0,0,0,6.712H384.5A3.356,3.356,0,0,1,381.141,165.135Z" transform="translate(-0.526 0)" fill="#9bcdeb"/>
      </g>
    </g>
    <g id="Grupo_8521" data-name="Grupo 8521" transform="translate(119 3909.195)">
      <ellipse id="Elipse_497-2" data-name="Elipse 497" cx="67.5" cy="67" rx="67.5" ry="67" transform="translate(0 -0.195)" fill="#80cbc4"/>
      <path id="Trazado_1178-2" data-name="Trazado 1178" d="M59.984,0A59.984,59.984,0,1,1,0,59.984,59.984,59.984,0,0,1,59.984,0Z" transform="translate(8.182 6.791)" fill="#fff"/>
      <g id="Grupo_7952" data-name="Grupo 7952" transform="translate(-1466.896 -1044.811)">
        <path id="Trazado_13995" data-name="Trazado 13995" d="M1543.913,1087.374H1525.5c0,6.995-5.435,12.229-8.822,16.7a9.752,9.752,0,0,0-2.125,6.064c0,14.661-.043,57.624-.043,57.624a9.412,9.412,0,0,0,9.413,9.414h21.523a9.414,9.414,0,0,0,9.413-9.414s-.018-46.866-.018-57.63a9.249,9.249,0,0,0-2.18-6.043C1549.807,1100.055,1543.913,1094.646,1543.913,1087.374Z" transform="translate(0 -16.173)" fill="#6ac7f4" stroke="#161615" stroke-linecap="round" stroke-linejoin="round" stroke-width="4.1"/>
        <path id="Trazado_13996" data-name="Trazado 13996" d="M1563.608,1071.452V1067.9a5.045,5.045,0,0,0-5.04-5.042h-11.626a5.043,5.043,0,0,0-5.04,5.042v3.551Z" transform="translate(-18.069)" fill="#00709e" stroke="#161615" stroke-linecap="round" stroke-linejoin="round" stroke-width="4.1"/>
        <path id="Trazado_13997" data-name="Trazado 13997" d="M1514.548,1213.86h40.324c-.006-8.613-.006-18.451-.009-26.181h-40.3C1514.563,1195.676,1514.557,1205.4,1514.548,1213.86Z" transform="translate(-0.024 -82.343)" fill="#fff" stroke="#161615" stroke-linecap="round" stroke-linejoin="round" stroke-width="4.1"/>
      </g>
    </g>
    <g id="Grupo_8522" data-name="Grupo 8522" transform="translate(119 4100.195)">
      <ellipse id="Elipse_497-3" data-name="Elipse 497" cx="67.5" cy="67" rx="67.5" ry="67" transform="translate(0 -0.195)" fill="#80cbc4"/>
      <path id="Trazado_1178-3" data-name="Trazado 1178" d="M59.984,0A59.984,59.984,0,1,1,0,59.984,59.984,59.984,0,0,1,59.984,0Z" transform="translate(8.182 6.791)" fill="#fff"/>
      <g id="Grupo_7953" data-name="Grupo 7953" transform="translate(-596.423 -1506.651)">
        <path id="Trazado_13998" data-name="Trazado 13998" d="M694.152,1625.342A10.351,10.351,0,0,1,683.8,1635.7H644.772a10.351,10.351,0,0,1-10.349-10.354v-59.734a10.35,10.35,0,0,1,10.349-10.351H683.8a10.35,10.35,0,0,1,10.349,10.351Z" transform="translate(0 -17.552)" fill="#6ac7f4" stroke="#161615" stroke-linecap="round" stroke-linejoin="round" stroke-width="4.1"/>
        <rect id="Rectángulo_3375" data-name="Rectángulo 3375" width="39.539" height="9.461" transform="translate(644.52 1528.244)" stroke-width="4.1" stroke="#161615" stroke-linecap="round" stroke-linejoin="round" fill="#dd1a18"/>
        <rect id="Rectángulo_3376" data-name="Rectángulo 3376" width="59.729" height="29.74" transform="translate(634.423 1560.688)" stroke-width="4.1" stroke="#161615" stroke-linecap="round" stroke-linejoin="round" fill="#dd1a18"/>
        <path id="Trazado_13999" data-name="Trazado 13999" d="M701.052,1625.3a21.8,21.8,0,1,1-21.794-21.8A21.794,21.794,0,0,1,701.052,1625.3Z" transform="translate(-14.967 -48.9)" fill="#fff" stroke="#161615" stroke-linecap="round" stroke-linejoin="round" stroke-width="4.1"/>
      </g>
    </g>
    <line id="Línea_224" data-name="Línea 224" x2="713" transform="translate(287 3870)" fill="none" stroke="#80cbc4" stroke-width="3"/>
    <line id="Línea_227" data-name="Línea 227" x2="713" transform="translate(287 4061)" fill="none" stroke="#80cbc4" stroke-width="3"/>
    <line id="Línea_229" data-name="Línea 229" x2="713" transform="translate(287 4252)" fill="none" stroke="#80cbc4" stroke-width="3"/>
    <line id="Línea_225" data-name="Línea 225" x2="713" transform="translate(287 3718)" fill="none" stroke="#80cbc4" stroke-width="3"/>
    <line id="Línea_226" data-name="Línea 226" x2="713" transform="translate(287 3909)" fill="none" stroke="#80cbc4" stroke-width="3"/>
    <line id="Línea_228" data-name="Línea 228" x2="713" transform="translate(287 4100)" fill="none" stroke="#80cbc4" stroke-width="3"/>
  </g>
</svg>
